<svg width="58" height="58" viewBox="0 0 58 58" fill="none" xmlns="http://www.w3.org/2000/svg">
<rect x="1" y="1" width="56" height="56" rx="7" fill="white"/>
<rect x="1" y="1" width="56" height="56" rx="7" stroke="#333333" stroke-width="2"/>
<path fill-rule="evenodd" clip-rule="evenodd" d="M36.5 29C36.5 29.6213 35.9963 30.125 35.375 30.125H25.4181L28.6547 33.0641C29.1026 33.4947 29.1166 34.2069 28.6859 34.6547C28.2553 35.1026 27.5431 35.1166 27.0953 34.6859L21.8453 29.8109C21.6247 29.5988 21.5 29.306 21.5 29C21.5 28.694 21.6247 28.4012 21.8453 28.1891L27.0953 23.3141C27.5431 22.8834 28.2553 22.8974 28.6859 23.3453C29.1166 23.7931 29.1026 24.5053 28.6547 24.9359L25.4181 27.875L35.375 27.875C35.9963 27.875 36.5 28.3787 36.5 29Z" fill="#333333"/>
</svg>
